:FULLY-SPECIFIED
:FORCE-ALL-JOINTS-BE-3DOF
:DEGREES
178
root 8.23063 16.6368 -12.1359 7.60383 7.64933 -2.58864
lfemur -19.4036 6.46248 -13.4699
ltibia 51.3118 0 0
lfoot -1.85446 13.8724 0
ltoes -15.5064 0 0
rfemur -18.1188 1.64667 27.7377
rtibia 24.3218 0 0
rfoot -14.5862 2.91712 0
rtoes -12.4875 0 0
lowerback -4.71293 -0.445337 1.02369
upperback -1.33125 -0.73272 3.63078
thorax 1.32441 -0.353144 3.1667
lowerneck -17.8903 -7.22633 -14.657
upperneck 14.0718 -8.92664 15.0755
head 8.70622 -3.62184 6.39076
lclavicle -7.97412e-15 2.09597e-14 0
lhumerus -47.9075 -11.2074 97.1883
lradius 26.1237 0 0
lwrist 5.79119 0 0
lhand -3.37343 -19.7474 0
lfingers 7.12502 0 0
lthumb 22.3495 8.90753 0
rclavicle -7.97412e-15 2.09597e-14 0
rhumerus -42.0184 10.3279 -81.1702
rradius 40.2335 0 0
rwrist -21.4844 0 0
rhand -29.7069 -27.7849 0
rfingers 7.12502 0 0
rthumb -3.03417 -57.7313 0
179
root 8.23147 16.6343 -12.0098 7.58929 7.46524 -2.69454
lfemur -20.3738 6.22944 -13.4746
ltibia 50.3296 0 0
lfoot -2.35311 13.8511 0
ltoes -15.6736 0 0
rfemur -17.3177 1.76048 27.9627
rtibia 23.7391 0 0
rfoot -14.8334 3.02348 0
rtoes -12.307 0 0
lowerback -4.7547 -0.34226 1.10398
upperback -1.29415 -0.602496 3.63599
thorax 1.3804 -0.288109 3.13659
lowerneck -17.8187 -7.21469 -14.6565
upperneck 14.0666 -8.9221 15.0881
head 8.69142 -3.62142 6.39658
lclavicle -6.32418e-15 2.0436e-14 0
lhumerus -48.0398 -11.156 97.1887
lradius 26.1804 0 0
lwrist 5.99413 0 0
lhand -3.71266 -19.9039 0
lfingers 7.12502 0 0
lthumb 22.0234 8.78375 0
rclavicle -6.32418e-15 2.0436e-14 0
rhumerus -41.7052 10.3814 -81.1288
rradius 40.7732 0 0
rwrist -21.7334 0 0
rhand -29.8614 -27.8799 0
rfingers 7.12502 0 0
rthumb -3.18342 -57.8234 0
180
root 8.23232 16.6317 -11.8836 7.57343 7.27505 -2.79852
lfemur -21.3484 5.98842 -13.488
ltibia 49.2965 0 0
lfoot -2.87106 13.821 0
ltoes -15.8385 0 0
rfemur -16.5088 1.88206 28.18
rtibia 23.1445 0 0
rfoot -15.0892 3.1238 0
rtoes -12.1274 0 0
lowerback -4.79955 -0.238383 1.18195
upperback -1.25627 -0.471008 3.64034
thorax 1.4391 -0.222506 3.10685
lowerneck -17.7464 -7.20167 -14.6553
upperneck 14.0653 -8.91588 15.0987
head 8.67751 -3.62041 6.40195
lclavicle -4.6582e-15 1.98764e-14 0
lhumerus -48.1651 -11.111 97.1879
lradius 26.2456 0 0
lwrist 6.2032 0 0
lhand -4.06419 -20.0666 0
lfingers 7.12502 0 0
lthumb 21.6854 8.65489 0
rclavicle -4.6582e-15 1.98764e-14 0
rhumerus -41.3879 10.4341 -81.0878
rradius 41.3218 0 0
rwrist -21.9864 0 0
rhand -30.0195 -27.9742 0
rfingers 7.12502 0 0
rthumb -3.33606 -57.9148 0
181
root 8.23316 16.6292 -11.7575 7.55646 7.0792 -2.90046
lfemur -22.3257 5.74071 -13.5096
ltibia 48.2185 0 0
lfoot -3.40579 13.7827 0
ltoes -16.0004 0 0
rfemur -15.6936 2.01051 28.3893
rtibia 22.5406 0 0
rfoot -15.3518 3.21837 0
rtoes -11.9493 0 0
lowerback -4.84719 -0.133927 1.25756
upperback -1.21781 -0.338546 3.64382
thorax 1.50012 -0.156473 3.07748
lowerneck -17.6737 -7.18736 -14.6532
upperneck 14.0678 -8.90808 15.1076
head 8.66451 -3.61883 6.4069
lclavicle -2.98173e-15 1.92841e-14 0
lhumerus -48.2835 -11.0717 97.1858
lradius 26.3185 0 0
lwrist 6.41698 0 0
lhand -4.42637 -20.2349 0
lfingers 7.12502 0 0
lthumb 21.3372 8.52157 0
rclavicle -2.98173e-15 1.92841e-14 0
rhumerus -41.0678 10.4859 -81.0476
rradius 41.8774 0 0
rwrist -22.2425 0 0
rhand -30.1804 -28.0675 0
rfingers 7.12502 0 0
rthumb -3.49145 -58.0051 0
182
root 8.23401 16.6267 -11.6314 7.53859 6.87817 -3.00023
lfemur -23.3038 5.48759 -13.5392
ltibia 47.1017 0 0
lfoot -3.95483 13.7366 0
ltoes -16.1585 0 0
rfemur -14.8736 2.14493 28.5905
rtibia 21.9298 0 0
rfoot -15.6189 3.3075 0
rtoes -11.7731 0 0
lowerback -4.89733 -0.0291126 1.33073
upperback -1.17899 -0.205395 3.64642
thorax 1.5631 -0.0901486 3.0485
lowerneck -17.6008 -7.17185 -14.6505
upperneck 14.074 -8.89879 15.1148
head 8.65239 -3.6167 6.41145
lclavicle -1.30031e-15 1.86624e-14 0
lhumerus -48.3952 -11.0375 97.1821
lradius 26.3978 0 0
lwrist 6.63407 0 0
lhand -4.79757 -20.4079 0
lfingers 7.12502 0 0
lthumb 20.9803 8.3844 0
rclavicle -1.30031e-15 1.86624e-14 0
rhumerus -40.746 10.5367 -81.0083
rradius 42.4379 0 0
rwrist -22.5008 0 0
rhand -30.3436 -28.1594 0
rfingers 7.12502 0 0
rthumb -3.64896 -58.094 0
183
root 8.23485 16.6242 -11.5053 7.52004 6.67242 -3.09773
lfemur -24.2809 5.23034 -13.5763
ltibia 45.9521 0 0
lfoot -4.51567 13.6831 0
ltoes -16.3121 0 0
rfemur -14.0505 2.28443 28.7833
rtibia 21.3147 0 0
rfoot -15.8885 3.39148 0
rtoes -11.5992 0 0
lowerback -4.9497 0.0758399 1.4014
upperback -1.14 -0.0718441 3.64813
thorax 1.62763 -0.0236714 3.01993
lowerneck -17.5278 -7.15523 -14.647
upperneck 14.0836 -8.88809 15.1204
head 8.64115 -3.61405 6.41561
lclavicle 3.80534e-16 1.80144e-14 0
lhumerus -48.5004 -11.0078 97.1766
lradius 26.4827 0 0
lwrist 6.85306 0 0
lhand -5.17614 -20.5849 0
lfingers 7.12502 0 0
lthumb 20.6163 8.24399 0
rclavicle 3.80534e-16 1.80144e-14 0
rhumerus -40.4238 10.5862 -80.9703
rradius 43.0015 0 0
rwrist -22.7605 0 0
rhand -30.5082 -28.2496 0
rfingers 7.12502 0 0
rthumb -3.80795 -58.1812 0
